<?xml version="1.0" standalone="no"?>
<!DOCTYPE svg PUBLIC "-//W3C//DTD SVG 20010904//EN"
 "http://www.w3.org/TR/2001/REC-SVG-20010904/DTD/svg10.dtd">
<svg version="1.0" xmlns="http://www.w3.org/2000/svg"
 width="255.000000pt" height="255.000000pt" viewBox="0 0 255.000000 255.000000"
 preserveAspectRatio="xMidYMid meet">
<metadata>
Created by potrace 1.14, written by Peter Selinger 2001-2017
</metadata>
<g transform="translate(0.000000,255.000000) scale(0.100000,-0.100000)"
fill="#000000" stroke="none">
<path d="M735 2451 c-6 -21 -45 -42 -130 -69 -33 -10 -69 -23 -79 -27 -13 -6
-17 -5 -12 3 12 20 -14 23 -64 7 -46 -15 -110 -71 -110 -96 0 -5 -15 -16 -32
-24 -61 -25 -107 -97 -110 -171 l-1 -36 -16 26 c-9 14 -19 26 -23 26 -4 0 -15
-25 -24 -55 -14 -44 -15 -62 -7 -90 10 -30 8 -43 -8 -80 -18 -40 -19 -61 -15
-197 2 -84 7 -162 10 -173 5 -15 0 -23 -21 -32 -51 -23 -68 -66 -68 -173 1
-79 5 -103 25 -143 21 -44 59 -90 104 -125 12 -10 16 -30 16 -79 0 -102 57
-270 113 -330 l20 -23 -22 0 c-12 0 -44 -9 -71 -21 -38 -16 -64 -20 -129 -17
l-81 3 0 -277 0 -278 189 0 188 0 6 48 c8 66 -7 133 -47 211 -18 36 -37 77
-41 90 -6 21 -4 20 26 -9 65 -63 225 -119 340 -120 25 0 67 6 93 14 48 15 48
14 30 -5 -10 -11 -46 -40 -79 -64 -56 -40 -115 -119 -115 -154 0 -8 115 -11
410 -11 226 0 410 3 410 7 0 8 -140 179 -184 224 -22 22 -71 51 -133 78 -77
33 -104 50 -122 77 -13 19 -22 36 -20 37 84 53 162 114 200 155 52 57 109 165
131 246 12 44 17 50 63 71 76 34 137 117 161 222 17 75 12 123 -17 165 -15 21
-18 32 -10 46 16 30 71 234 71 264 0 15 6 32 13 37 6 6 26 22 42 36 l30 25
-23 18 c-19 15 -23 29 -27 89 -3 68 -30 153 -53 167 -7 4 -3 24 11 56 11 27
18 52 15 55 -3 3 -20 -1 -39 -9 -43 -18 -54 -12 -67 37 -15 55 -54 101 -116
138 -30 18 -59 43 -65 55 -12 27 -66 68 -109 82 -18 6 -46 21 -62 32 -49 35
-126 45 -215 27 l-78 -16 -19 24 c-23 30 -44 32 -53 6z m-215 -576 c-33 -19
-49 -19 -24 0 10 8 26 14 34 14 9 0 4 -6 -10 -14z m-47 -19 c15 -22 64 -46 51
-24 -4 5 1 8 10 6 10 -1 16 -7 16 -12 -1 -5 4 -13 12 -17 10 -7 9 -9 -4 -9
-10 0 -18 -8 -18 -17 0 -15 -2 -16 -10 -3 -5 8 -10 10 -10 4 0 -21 -31 -10
-48 18 -9 15 -20 28 -25 28 -4 0 -3 9 3 20 13 25 3 26 -23 3 -19 -17 -20 -17
-8 5 15 29 35 28 54 -2z m112 10 c17 -12 17 -16 5 -31 -13 -15 -14 -15 -23 0
-7 13 -18 16 -46 12 l-36 -6 38 12 c21 7 35 16 31 20 -13 13 12 7 31 -7z m85
-27 c0 -4 -7 -6 -15 -3 -8 4 -15 10 -15 15 0 4 7 6 15 3 8 -4 15 -10 15 -15z
m58 -9 c14 0 14 -2 3 -9 -10 -6 -6 -11 15 -19 l29 -10 -27 -1 c-15 -1 -29 3
-33 8 -3 6 -17 6 -35 1 -17 -5 -30 -6 -31 -2 0 4 -4 -2 -9 -13 -7 -15 -9 -16
-9 -4 -1 9 6 22 14 29 8 7 15 9 15 4 0 -5 5 -1 11 9 6 11 17 16 26 13 8 -3 22
-6 31 -6z m-340 -27 c-18 -15 -35 -28 -37 -30 -2 -1 1 -8 7 -15 6 -7 12 -31
15 -53 l4 -40 1 42 c1 23 6 44 10 47 9 5 8 -33 -3 -85 -4 -25 -3 -30 4 -19 6
8 11 11 11 7 0 -4 9 -3 21 3 29 16 32 8 12 -29 -16 -28 -16 -33 -3 -42 12 -8
10 -9 -9 -4 -17 5 -22 3 -19 -6 5 -16 -31 -61 -43 -53 -5 3 0 15 11 26 11 12
20 24 21 27 5 35 4 49 -3 45 -4 -3 -8 -13 -8 -22 -1 -18 -23 -52 -34 -52 -3 0
-6 7 -6 15 0 8 4 15 8 15 14 0 33 50 25 63 -4 7 -11 35 -15 62 -6 44 -6 42 -4
-18 2 -37 0 -70 -5 -73 -5 -3 -9 6 -9 20 0 14 -6 26 -12 26 -10 0 -10 2 0 9 9
5 13 24 11 55 -3 43 0 50 31 76 19 17 39 30 43 30 5 0 -6 -12 -25 -27z m598
12 c-5 -13 0 -15 28 -10 22 5 36 2 41 -5 5 -9 1 -10 -14 -5 -13 4 -28 1 -38
-7 -13 -10 -17 -10 -20 0 -3 7 -20 12 -41 11 -37 -1 -37 -1 -7 -8 17 -4 29
-13 27 -20 -2 -9 4 -10 20 -4 13 4 46 8 73 9 28 1 69 8 93 15 36 11 46 11 64
0 16 -10 23 -11 26 -2 4 13 22 5 22 -10 0 -6 -4 -8 -9 -5 -18 11 -18 -44 0
-74 10 -16 14 -30 9 -30 -6 0 -10 -18 -10 -41 0 -29 3 -38 13 -33 9 5 9 4 0
-6 -22 -24 -36 0 -30 53 3 39 0 58 -16 85 -19 32 -23 34 -61 28 -28 -3 -34 -2
-21 4 13 5 -8 7 -58 5 -43 -1 -81 -5 -85 -9 -4 -4 9 -5 29 -1 23 4 39 3 43 -4
11 -17 -95 -13 -118 4 -20 15 -20 15 0 16 34 2 -38 17 -88 18 -28 0 -48 6 -48
12 0 7 10 9 26 5 33 -9 145 4 138 15 -3 5 0 9 6 9 7 0 9 -7 6 -15z m-531 -21
c29 -19 32 -34 8 -35 -13 0 -11 -3 7 -10 31 -13 106 -6 103 8 -1 6 4 14 13 17
8 3 12 2 9 -3 -8 -14 14 -24 54 -24 32 1 33 0 11 -7 -14 -4 -55 -8 -92 -9 -66
-1 -122 -17 -113 -32 3 -4 -4 -5 -16 -2 -12 3 -24 1 -28 -6 -4 -6 -7 10 -7 36
1 37 -2 47 -14 45 -8 -1 -4 7 10 18 30 24 25 23 55 4z m645 2 c0 -11 -19 -15
-25 -6 -3 5 1 10 9 10 9 0 16 -2 16 -4z m-287 -28 c2 -9 21 -12 55 -11 29 1
52 -2 52 -7 0 -6 -42 -10 -98 -10 -91 0 -98 1 -99 20 -2 17 4 20 42 20 26 0
45 -5 48 -12z m54 6 c-3 -3 -12 -4 -19 -1 -8 3 -5 6 6 6 11 1 17 -2 13 -5z
m423 -45 c10 -22 10 -33 1 -42 -8 -8 -11 -6 -11 10 0 12 -4 25 -10 28 -12 8
-13 35 -1 35 5 0 14 -14 21 -31z m24 -46 c-7 -30 -24 -55 -24 -35 0 12 21 62
27 62 2 0 0 -12 -3 -27z m6 -59 c-16 -49 -21 -38 -8 16 6 24 13 39 16 32 2 -6
-2 -28 -8 -48z m-640 31 c0 -8 -4 -15 -10 -15 -5 0 -10 7 -10 15 0 8 5 15 10
15 6 0 10 -7 10 -15z m37 -7 c-3 -8 -6 -5 -6 6 -1 11 2 17 5 13 3 -3 4 -12 1
-19z m-127 3 c0 -5 12 -11 28 -13 18 -2 28 -10 30 -23 3 -20 62 -62 62 -44 0
5 -7 12 -15 15 -16 6 -21 34 -7 34 17 0 33 -51 22 -65 -9 -11 -15 -10 -31 6
-10 10 -31 20 -46 21 -16 0 -32 2 -38 3 -5 2 -38 3 -71 4 -51 1 -63 4 -66 19
-3 10 0 19 6 20 6 1 30 5 54 8 23 3 42 10 42 15 0 5 7 9 15 9 8 0 15 -4 15 -9z
m-258 -65 c-3 -5 -9 -1 -13 10 -7 17 -8 16 -10 -6 -1 -14 -1 -33 -1 -43 1 -10
-3 -15 -9 -12 -11 8 -4 57 14 90 10 19 11 19 17 -5 4 -14 5 -29 2 -34z m974
-3 c5 -2 15 9 21 24 10 25 11 26 12 6 1 -12 -3 -25 -9 -28 -5 -3 -10 -18 -11
-33 0 -24 -1 -25 -9 -7 -6 13 -7 5 -3 -25 7 -55 13 -64 13 -22 0 18 4 32 10
32 5 0 9 -45 8 -107 -1 -68 -4 -100 -9 -88 -6 12 -7 -3 -4 -40 4 -52 3 -55 -5
-20 -5 22 -10 70 -11 108 -1 37 -6 67 -12 67 -5 0 -7 12 -4 28 5 27 -3 55 -17
53 -18 -3 -26 0 -26 9 0 6 7 10 15 10 11 0 15 12 16 43 1 33 2 37 8 18 4 -14
11 -26 17 -28z m-556 3 c0 4 7 -1 15 -12 13 -16 14 -16 9 -1 -4 12 -1 17 11
17 11 0 15 -5 11 -16 -3 -8 -2 -12 4 -9 10 6 1 -65 -10 -78 -4 -5 -10 6 -13
23 -4 17 -18 42 -32 56 -27 27 -34 44 -10 24 8 -7 15 -9 15 -4z m330 4 c-8 -5
-22 -9 -30 -9 -10 0 -8 3 5 9 27 12 43 12 25 0z m-61 -16 c10 -9 -55 -3 -69 6
-10 6 -2 7 25 3 22 -3 42 -7 44 -9z m114 -4 c-4 -14 0 -20 11 -20 9 0 20 -8
23 -17 11 -29 27 -33 49 -12 21 20 21 20 27 0 3 -14 1 -18 -9 -14 -8 3 -14 0
-14 -6 0 -6 5 -11 10 -11 6 0 10 -13 10 -29 0 -34 19 -45 37 -22 11 14 12 13
13 -7 0 -13 -4 -21 -9 -18 -14 9 -22 -23 -12 -43 7 -13 6 -18 -4 -18 -7 0 -11
7 -7 15 4 11 1 13 -7 7 -10 -6 -11 -3 -1 15 13 25 4 42 -10 20 -6 -8 -10 -10
-10 -5 -5 58 -10 79 -20 88 -13 12 -12 8 7 -40 4 -11 3 -14 -5 -9 -7 4 -12 14
-12 22 0 8 -5 14 -11 14 -5 0 -7 5 -3 12 5 8 2 9 -10 5 -11 -4 -15 -3 -11 4 4
6 0 9 -11 7 -10 -2 -19 2 -19 9 0 14 -15 31 -15 17 0 -14 -127 -1 -142 15 -11
11 -7 12 22 7 80 -16 120 -18 120 -6 0 7 -8 9 -19 5 -10 -3 -27 -2 -37 2 -16
6 -12 9 21 19 54 17 54 17 48 -6z m210 -10 c-3 -12 -8 -19 -11 -16 -5 6 5 36
12 36 2 0 2 -9 -1 -20z m-688 0 c3 -6 -1 -7 -9 -4 -18 7 -21 14 -7 14 6 0 13
-4 16 -10z m264 -51 c13 -1 13 -2 -1 -6 -10 -2 -18 -11 -18 -19 0 -8 -5 -14
-12 -14 -6 0 -8 3 -5 7 4 3 3 11 -3 18 -5 6 -6 22 -3 35 l6 24 10 -22 c6 -12
17 -23 26 -23z m29 29 c-6 -18 -28 -21 -28 -4 0 9 7 16 16 16 9 0 14 -5 12
-12z m-658 -21 c0 -7 9 -20 20 -30 15 -13 20 -14 20 -3 0 8 7 16 15 20 13 5
14 2 4 -16 -10 -18 -8 -24 7 -36 18 -14 18 -14 1 -8 -10 3 -25 6 -33 6 -8 0
-14 8 -14 18 0 14 -2 14 -9 3 -7 -10 -3 -23 10 -39 21 -27 24 -42 9 -42 -5 0
-10 7 -10 16 0 8 -7 22 -15 30 -10 10 -13 25 -9 42 5 19 3 24 -4 17 -6 -5 -12
-21 -15 -35 -4 -21 0 20 5 58 2 16 18 16 18 -1z m430 -20 c0 -5 -4 -5 -10 -2
-5 3 -10 14 -10 23 0 15 2 15 10 2 5 -8 10 -19 10 -23z m-117 -7 c30 -16 61
-30 70 -30 9 0 17 -7 17 -16 0 -10 6 -14 15 -10 12 4 15 -3 15 -31 0 -30 -2
-34 -15 -23 -8 7 -13 16 -10 20 3 4 -4 19 -16 31 -15 17 -19 19 -15 7 3 -11
-2 -22 -14 -28 -15 -8 -20 -8 -20 1 0 13 -49 4 -65 -13 -7 -7 1 -8 25 -4 19 3
28 3 20 -1 -8 -3 -17 -9 -20 -13 -3 -4 -27 1 -55 12 -36 13 -41 17 -18 14 19
-3 36 0 42 8 9 11 6 12 -16 9 -24 -4 -25 -3 -10 7 24 16 21 35 -9 48 -14 7
-23 8 -19 2 3 -5 2 -10 -3 -10 -5 0 -7 -11 -4 -25 5 -29 1 -30 -53 -10 l-40
16 38 -4 c20 -2 37 1 37 5 0 4 -5 8 -12 8 -6 0 -3 6 7 14 16 12 17 16 6 30
-25 30 62 20 122 -14z m-133 9 c12 -8 10 -10 -9 -5 -14 3 -32 0 -40 -7 -14
-11 -14 -10 -2 6 15 20 30 21 51 6z m345 -48 c-4 -23 -10 -41 -14 -41 -5 0 -4
20 2 45 13 55 22 52 12 -4z m-365 19 c0 -5 -4 -10 -10 -10 -5 0 -10 5 -10 10
0 6 5 10 10 10 6 0 10 -4 10 -10z m278 -2 c-2 -5 -8 -9 -13 -9 -5 0 -11 4 -13
9 -1 5 4 9 13 9 9 0 14 -4 13 -9z m529 -20 c-3 -7 -5 -2 -5 12 0 14 2 19 5 13
2 -7 2 -19 0 -25z m-857 8 c-7 -7 -14 -6 -21 1 -9 9 -7 12 9 10 14 -1 18 -5
12 -11z m503 -16 c3 -12 0 -20 -8 -20 -8 0 -11 8 -8 20 3 11 7 20 8 20 1 0 5
-9 8 -20z m-158 0 c3 -5 1 -10 -4 -10 -6 0 -11 5 -11 10 0 6 2 10 4 10 3 0 8
-4 11 -10z m295 6 c0 -2 -7 -7 -16 -10 -8 -3 -12 -2 -9 4 6 10 25 14 25 6z
m86 -15 c41 -18 57 -34 60 -58 3 -15 -23 -25 -31 -13 -4 6 -1 10 4 10 19 0 12
25 -10 38 -27 17 -38 6 -13 -13 10 -8 14 -15 7 -15 -6 0 -14 4 -17 9 -3 5 -24
11 -46 13 -37 3 -40 2 -40 -22 0 -22 7 -28 48 -39 26 -8 53 -13 60 -12 6 1 12
-3 12 -9 0 -5 -6 -10 -12 -10 -7 -1 -3 -9 10 -19 30 -26 28 -36 -3 -14 -13 10
-25 23 -25 30 0 7 -7 10 -15 7 -8 -4 -15 -2 -15 4 0 5 -12 8 -27 5 -25 -3 -26
-2 -8 7 15 7 6 9 -34 5 -29 -3 -56 -7 -60 -9 -3 -2 -15 2 -26 10 -16 12 -17
14 -2 14 9 0 17 6 17 14 0 8 7 16 15 20 8 3 15 10 15 16 0 5 -7 10 -15 10 -8
0 -15 -4 -15 -10 0 -5 -13 -10 -30 -10 -16 0 -30 5 -30 10 0 6 11 8 26 4 21
-5 25 -3 22 11 -2 12 4 19 20 21 12 2 22 0 22 -5 0 -5 30 -9 66 -8 47 0 60 3
44 9 -12 4 -26 6 -30 3 -5 -3 -11 -1 -15 5 -10 16 26 11 71 -9z m-653 -20 c9
-10 5 -10 -18 -1 -29 11 -29 11 -10 -10 15 -16 15 -20 3 -15 -9 4 -19 2 -23
-4 -3 -6 -11 -11 -16 -11 -6 0 -7 5 -4 10 3 6 -1 10 -10 10 -11 0 -15 -5 -11
-15 3 -9 0 -15 -10 -15 -9 0 -12 5 -8 11 4 7 1 10 -7 7 -8 -3 -13 -10 -12 -17
2 -6 -12 -18 -30 -28 -24 -13 -28 -18 -14 -21 9 -2 17 -8 17 -13 0 -5 -8 -9
-17 -9 -14 0 -15 -2 -5 -9 10 -6 8 -10 -8 -14 -15 -4 -21 -11 -17 -21 4 -9 2
-16 -3 -16 -6 0 -10 -10 -10 -22 0 -34 -17 -8 -23 34 -3 22 -1 35 5 32 5 -3
15 -3 23 0 19 7 9 34 -14 38 -14 2 -11 9 16 36 29 29 33 30 33 12 0 -22 7 -25
29 -11 10 6 10 10 1 16 -23 14 29 38 68 31 26 -4 32 -2 22 4 -8 5 -26 10 -40
10 -14 0 -30 4 -37 8 -6 4 18 6 54 6 35 -1 70 -7 76 -13z m397 -11 c0 -16 -4
-30 -10 -30 -5 0 -10 14 -10 30 0 17 5 30 10 30 6 0 10 -13 10 -30z m-604 -16
c-5 -19 -10 -24 -17 -17 -8 8 -7 18 1 33 15 28 24 19 16 -16z m494 -21 c-11
-17 -11 -17 -6 0 3 10 7 28 7 40 2 22 2 22 6 0 2 -12 -1 -30 -7 -40z m40 -2
c8 12 12 11 27 -5 17 -18 17 -19 0 -13 -11 4 -16 3 -12 -3 3 -5 2 -26 -4 -45
-5 -21 -6 -33 0 -30 5 4 9 13 9 21 0 18 22 14 28 -6 3 -7 0 -10 -6 -6 -16 10
-33 -29 -27 -61 5 -27 5 -27 -7 2 -6 17 -20 37 -30 47 -19 16 -19 16 0 22 24
8 37 46 16 46 -10 0 -14 11 -13 38 2 32 3 33 6 8 4 -22 7 -26 13 -15z m498 -2
l2 -34 -15 34 c-18 40 -18 44 -2 39 6 -3 13 -20 15 -39z m-611 -7 c7 -9 12
-21 12 -27 0 -5 -4 -2 -10 8 -5 9 -20 17 -32 16 l-22 0 22 -9 c12 -5 24 -18
28 -29 7 -24 25 -28 25 -6 0 8 5 15 10 15 15 0 12 -16 -5 -30 -9 -7 -13 -21
-10 -31 6 -18 -9 -27 -18 -11 -2 4 -3 2 -2 -3 2 -6 -4 -16 -11 -23 -8 -7 -14
-8 -14 -3 0 5 -6 11 -12 14 -7 2 -6 3 3 2 9 -1 20 9 26 26 9 23 8 29 -2 29 -8
0 -17 5 -21 12 -5 7 -3 8 6 3 8 -5 11 -3 9 4 -3 7 -9 13 -14 14 -19 4 -50 42
-40 50 15 11 57 -2 72 -21z m50 6 c-3 -8 -6 -5 -6 6 -1 11 2 17 5 13 3 -3 4
-12 1 -19z m208 12 c3 -5 1 -10 -4 -10 -6 0 -11 5 -11 10 0 6 2 10 4 10 3 0 8
-4 11 -10z m-45 -8 c0 -5 11 -15 25 -22 13 -7 22 -17 19 -22 -3 -4 -9 -6 -14
-3 -4 3 -16 2 -25 -1 -9 -4 -12 -9 -7 -13 6 -4 2 -16 -9 -30 -10 -13 -19 -19
-19 -14 0 5 5 14 11 20 8 8 8 17 0 32 -12 22 -31 29 -31 11 0 -5 5 -10 12 -10
6 0 9 -3 5 -6 -3 -3 -13 -2 -22 3 -14 8 -13 13 11 36 27 27 44 34 44 19z m245
-21 c-6 -5 -25 10 -25 20 0 5 6 4 14 -3 8 -7 12 -15 11 -17z m-618 3 c-3 -3
-12 -4 -19 -1 -8 3 -5 6 6 6 11 1 17 -2 13 -5z m681 -42 c3 -45 32 -107 32
-69 0 11 8 17 23 17 21 0 24 -5 25 -47 1 -48 -17 -83 -48 -96 -10 -3 -7 -6 8
-6 16 -1 22 -7 22 -24 0 -13 6 -29 13 -36 10 -11 10 -14 0 -18 -7 -3 -13 -17
-14 -31 l-1 -27 -7 25 c-5 14 -4 29 1 35 13 15 9 25 -11 25 -20 0 -62 44 -60
64 0 7 3 6 6 -2 3 -8 14 -2 31 18 15 16 32 30 39 30 17 0 17 27 1 33 -10 3
-10 8 1 21 8 9 11 19 7 23 -10 10 -36 -30 -30 -46 3 -11 1 -11 -10 -2 -7 6
-22 9 -32 5 -18 -5 -18 -5 0 10 19 15 19 16 2 35 -12 14 -16 28 -12 45 4 16 1
30 -9 40 -20 19 -19 25 3 23 13 -1 18 -11 20 -45z m-753 6 c19 -64 103 -71
125 -12 l11 27 25 -24 c23 -22 24 -24 8 -36 -26 -19 -78 -26 -129 -19 -67 11
-132 73 -92 89 29 12 43 6 52 -25z m-97 -13 c28 -44 28 -45 -7 -45 -24 0 -29
4 -28 20 1 13 5 16 11 10 21 -21 28 -9 8 13 -23 24 -28 37 -14 37 4 0 17 -16
30 -35z m832 5 c0 -5 -4 -10 -10 -10 -5 0 -10 5 -10 10 0 6 5 10 10 10 6 0 10
-4 10 -10z m-160 -20 c0 -5 -7 -10 -15 -10 -8 0 -15 5 -15 10 0 6 7 10 15 10
8 0 15 -4 15 -10z m-42 -77 c37 -28 102 -4 102 39 0 22 19 23 46 4 28 -21 8
-47 -49 -65 -56 -17 -123 -2 -159 36 l-23 25 25 20 25 20 8 -33 c5 -18 16 -39
25 -46z m319 35 c-3 -7 -5 -2 -5 12 0 14 2 19 5 13 2 -7 2 -19 0 -25z m-892
-8 c4 -6 12 -10 18 -9 7 1 25 -1 40 -6 20 -5 25 -11 18 -18 -7 -7 -15 -6 -25
2 -8 7 -21 9 -27 5 -7 -4 -18 1 -26 11 -7 11 -13 13 -13 6 0 -7 -5 -9 -10 -6
-11 7 -4 25 10 25 5 0 12 -5 15 -10z m301 -26 c-3 -9 1 -14 13 -14 10 0 21 7
25 15 10 27 25 16 23 -17 -1 -18 2 -46 6 -61 7 -26 6 -28 -15 -21 -13 4 -27
13 -33 20 -20 28 -32 0 -25 -56 4 -30 5 -60 3 -67 -3 -6 0 -20 6 -31 8 -15 7
-21 -3 -25 -10 -4 -12 0 -9 14 3 10 0 19 -6 19 -15 0 -14 27 2 33 6 2 9 8 5
12 -8 9 -38 -18 -38 -34 0 -6 -4 -11 -10 -11 -5 0 -10 -8 -10 -17 0 -14 -2
-15 -9 -4 -7 11 -11 10 -20 -5 -11 -21 -15 -15 -5 10 3 9 12 16 20 16 8 0 14
7 14 15 0 8 -5 14 -11 12 -6 -1 -13 3 -16 9 -2 6 3 11 12 11 8 0 15 -4 15 -9
0 -4 5 -8 10 -8 17 0 12 90 -5 96 -8 4 -15 11 -15 18 0 17 -130 8 -147 -10
-13 -13 -43 -9 -43 5 0 14 70 29 112 24 31 -3 39 -2 28 6 -18 12 -14 16 25 25
29 7 29 7 10 -8 -18 -14 -18 -16 -2 -17 9 -1 23 -2 30 -3 19 -3 48 14 41 25
-3 5 0 16 6 24 6 8 8 20 4 26 -5 8 -3 9 5 5 7 -5 10 -14 7 -22z m-618 -19 c0
-32 -9 -26 -12 9 -2 14 0 23 4 21 4 -3 8 -16 8 -30z m555 21 c7 -16 -20 -15
-50 3 -15 9 -13 10 13 11 19 0 34 -6 37 -14z m28 -9 c-10 -9 -11 -8 -5 6 3 10
9 15 12 12 3 -3 0 -11 -7 -18z m197 -3 c-7 -15 -14 -21 -16 -15 -2 7 2 18 8
26 18 22 21 18 8 -11z m442 16 c0 -5 -4 -10 -10 -10 -5 0 -10 5 -10 10 0 6 5
10 10 10 6 0 10 -4 10 -10z m-1099 -31 c-5 -13 -10 -19 -10 -12 -1 15 10 45
15 40 3 -2 0 -15 -5 -28z m217 15 c6 3 12 -6 15 -21 6 -31 -28 -67 -53 -56 -8
3 -25 7 -37 7 -11 1 -19 4 -16 9 9 14 -7 7 -27 -13 -11 -11 -20 -30 -20 -42 0
-15 -3 -19 -8 -11 -4 7 -19 16 -32 21 -21 8 -27 6 -38 -17 l-12 -26 5 25 c2
14 5 39 5 55 1 30 1 30 11 5 13 -32 12 -32 42 -21 17 7 27 19 29 37 2 18 10
28 22 30 10 1 22 7 25 12 8 14 54 20 68 9 7 -5 16 -6 21 -3z m134 4 c-7 -7
-16 -7 -28 0 -14 8 -13 10 10 10 18 0 24 -4 18 -10z m349 -11 c13 -10 14 -14
3 -25 -7 -6 -15 -8 -19 -3 -3 5 0 11 7 13 7 3 5 7 -6 11 -10 4 -15 3 -11 -3 3
-6 1 -10 -4 -10 -12 0 -14 13 -4 23 9 10 15 8 34 -6z m290 -33 c8 -24 2 -35
-16 -28 -11 5 -12 11 -5 24 8 15 6 17 -9 13 -10 -3 -22 0 -25 5 -4 7 4 10 21
8 15 -2 30 -11 34 -22z m-404 -6 c-3 -8 -6 -5 -6 6 -1 11 2 17 5 13 3 -3 4
-12 1 -19z m40 0 c-3 -8 -6 -5 -6 6 -1 11 2 17 5 13 3 -3 4 -12 1 -19z m460 0
c-3 -8 -6 -5 -6 6 -1 11 2 17 5 13 3 -3 4 -12 1 -19z m154 -9 c-5 -13 -10 -19
-10 -12 -1 15 10 45 15 40 3 -2 0 -15 -5 -28z m-549 -2 l28 -22 -40 0 c-26 0
-40 4 -40 12 0 15 16 17 25 3 3 -5 12 -10 18 -10 7 0 1 9 -13 20 -14 11 -20
19 -15 19 6 0 22 -10 37 -22z m93 7 c13 -14 18 -14 32 -2 9 7 14 8 10 2 -4 -7
3 -14 18 -18 29 -7 34 -25 6 -23 -11 0 -17 5 -15 9 3 4 -1 9 -8 9 -7 1 -17 2
-23 4 -5 1 -21 3 -35 4 -14 2 -19 5 -11 8 11 5 11 7 0 14 -9 6 -10 9 -2 9 6 0
19 -7 28 -16z m165 6 c13 -9 13 -10 0 -9 -8 1 -26 5 -40 9 l-25 8 25 1 c14 0
32 -4 40 -9z m-1017 -60 c-6 -7 -23 23 -23 40 0 8 6 4 13 -10 8 -14 12 -27 10
-30z m960 43 c-7 -2 -19 -2 -25 0 -7 3 -2 5 12 5 14 0 19 -2 13 -5z m56 -3 c4
0 8 -7 8 -15 0 -8 -4 -15 -9 -15 -4 0 -8 -11 -8 -25 0 -21 -5 -25 -30 -25 -23
0 -30 4 -30 20 0 15 9 22 30 26 16 4 27 11 24 16 -3 5 -15 6 -26 2 -18 -5 -19
-4 -7 10 8 8 20 13 27 11 8 -3 17 -5 21 -5z m-316 -20 c3 -11 1 -23 -4 -26 -5
-3 -9 6 -9 20 0 31 6 34 13 6z m445 8 c-2 -6 -10 -14 -16 -16 -7 -2 -10 2 -6
12 7 18 28 22 22 4z m-754 -7 c4 -5 -3 -7 -14 -4 -23 6 -26 13 -6 13 8 0 17
-4 20 -9z m66 -47 c0 -19 -4 -34 -10 -34 -5 0 -10 18 -10 41 0 24 4 38 10 34
6 -3 10 -22 10 -41z m266 -10 c-4 -14 -11 -22 -17 -18 -8 4 -7 10 0 17 6 6 11
20 12 32 0 11 3 14 6 7 3 -7 2 -24 -1 -38z m99 36 c3 -5 1 -10 -4 -10 -6 0
-11 5 -11 10 0 6 2 10 4 10 3 0 8 -4 11 -10z m-174 -47 c-9 -16 -10 -15 -11 8
0 14 3 29 8 33 12 12 14 -22 3 -41z m259 27 c0 -11 -4 -20 -10 -20 -5 0 -10 6
-10 14 0 8 -6 17 -12 19 -7 3 -3 6 10 6 16 1 22 -5 22 -19z m-40 -10 c-20 -13
-40 -13 -40 0 0 6 12 10 28 10 21 0 24 -2 12 -10z m396 -28 c-17 -16 -18 -16
-5 5 7 12 15 20 18 17 3 -2 -3 -12 -13 -22z m-596 -11 c-15 -30 -12 -55 11
-80 23 -25 19 -42 -5 -18 -8 8 -12 18 -8 22 4 5 -1 5 -10 2 -32 -12 -48 3 -48
44 0 21 5 39 10 39 6 0 10 -18 10 -40 0 -22 5 -40 10 -40 6 0 10 13 10 29 0
36 9 61 21 61 6 0 5 -8 -1 -19z m183 12 c-7 -2 -21 -2 -30 0 -10 3 -4 5 12 5
17 0 24 -2 18 -5z m-465 -19 c15 -15 16 -15 24 2 7 18 8 18 5 -1 -3 -28 -32
-30 -63 -6 -26 20 -26 21 -5 21 13 0 30 -7 39 -16z m332 -14 c16 -38 8 -49
-10 -15 -16 31 -30 33 -22 3 3 -14 2 -19 -6 -14 -15 9 -15 29 0 44 18 18 24
15 38 -18z m30 20 c0 -5 -7 -10 -15 -10 -8 0 -15 5 -15 10 0 6 7 10 15 10 8 0
15 -4 15 -10z m305 -29 c-7 -35 -25 -42 -25 -11 0 20 21 52 28 45 2 -2 1 -17
-3 -34z m39 -3 c-3 -5 -2 -14 3 -21 14 -20 -1 -87 -19 -87 -5 0 -6 -4 -3 -10
3 -5 1 -10 -4 -10 -15 0 -14 12 4 37 14 21 14 63 0 117 -6 20 -6 20 9 2 9 -10
13 -23 10 -28z m-659 -4 c-8 -16 -15 -23 -15 -16 0 13 22 53 27 48 2 -2 -3
-16 -12 -32z m789 1 c-3 -8 -15 -17 -26 -21 -14 -4 -17 -8 -8 -14 9 -5 8 -9
-3 -13 -24 -9 -14 23 14 44 29 23 30 23 23 4z m-874 -3 c0 -16 -24 -32 -49
-33 -17 -1 -20 -3 -8 -6 9 -2 17 -9 17 -14 0 -5 7 -9 16 -9 8 0 12 5 9 10 -3
6 2 10 11 10 10 0 26 8 36 17 17 15 20 15 28 3 7 -11 4 -17 -13 -22 -14 -4
-16 -6 -6 -7 9 -1 19 -10 22 -21 6 -23 8 -22 -53 -10 -60 11 -153 -16 -146
-42 2 -10 1 -18 -3 -18 -9 0 -43 40 -33 40 4 0 0 4 -8 10 -9 6 -17 5 -22 -3
-6 -9 -8 -8 -8 3 0 8 -5 22 -10 30 -9 13 -11 13 -20 0 -5 -8 -10 -10 -10 -5 0
6 4 16 9 24 10 15 31 7 31 -13 0 -8 11 -13 25 -13 24 0 34 11 18 20 -5 2 -1 2
7 -1 39 -12 60 -13 60 -4 0 6 -8 12 -17 15 -10 2 8 7 40 11 38 6 57 13 57 22
0 8 5 14 10 14 6 0 10 -4 10 -8z m462 -17 c3 -13 1 -22 -3 -19 -5 3 -9 -15 -9
-39 0 -27 -5 -47 -12 -49 -7 -3 -47 -2 -88 2 -82 8 -70 13 27 11 l61 -1 4 45
c2 31 -1 45 -9 45 -7 0 -13 7 -13 15 0 26 37 17 42 -10z m255 -7 c-3 -7 -5 -2
-5 12 0 14 2 19 5 13 2 -7 2 -19 0 -25z m-527 2 c0 -5 -4 -10 -10 -10 -5 0
-10 5 -10 10 0 6 5 10 10 10 6 0 10 -4 10 -10z m430 -20 c0 -11 -4 -20 -10
-20 -5 0 -14 9 -20 20 -9 17 -8 20 10 20 13 0 20 -7 20 -20z m-220 0 c0 -5 -2
-10 -4 -10 -3 0 -8 5 -11 10 -3 6 -1 10 4 10 6 0 11 -4 11 -10z m30 0 c0 -5
-2 -10 -4 -10 -3 0 -8 5 -11 10 -3 6 -1 10 4 10 6 0 11 -4 11 -10z m270 0 c0
-5 -7 -10 -15 -10 -8 0 -15 5 -15 10 0 6 7 10 15 10 8 0 15 -4 15 -10z m30
-15 c0 -8 -4 -15 -10 -15 -5 0 -10 7 -10 15 0 8 5 15 10 15 6 0 10 -7 10 -15z
m-600 -25 c30 0 23 -6 -17 -13 -26 -5 -31 -3 -26 8 3 8 0 15 -6 15 -6 0 -11 5
-11 12 0 6 7 4 18 -5 10 -10 29 -17 42 -17z m267 -2 c-3 -8 -6 -5 -6 6 -1 11
2 17 5 13 3 -3 4 -12 1 -19z m168 -20 c4 -13 7 -30 6 -38 -1 -10 8 -16 24 -18
16 -1 25 3 25 13 0 21 27 19 39 -2 5 -10 12 -15 16 -11 8 8 -13 48 -25 48 -6
0 -10 7 -10 15 0 26 17 16 40 -22 17 -29 18 -38 8 -44 -7 -5 -19 -7 -26 -4 -7
2 -18 -7 -24 -20 -6 -14 -18 -25 -27 -25 -11 0 -10 3 5 14 10 8 16 18 11 22
-4 4 -7 2 -7 -4 0 -7 -9 -12 -21 -12 -15 0 -19 -5 -15 -16 3 -8 2 -12 -4 -9
-6 3 -10 1 -10 -5 0 -6 -5 -8 -12 -4 -9 6 -9 9 0 12 7 2 12 8 12 14 0 6 -7 8
-15 4 -14 -5 -19 4 -12 20 4 11 -73 45 -85 38 -7 -5 -8 -3 -3 5 4 8 17 10 31
7 13 -4 24 -3 23 1 -5 29 3 43 25 43 16 0 26 -7 31 -22z m-381 4 c2 -4 -10 -8
-27 -9 -30 -1 -30 -1 -7 7 14 4 26 8 27 9 1 1 4 -3 7 -7z m83 -18 c-3 -3 -12
-4 -19 -1 -8 3 -5 6 6 6 11 1 17 -2 13 -5z m-307 -109 c5 3 11 1 15 -5 3 -5 2
-10 -3 -10 -5 0 -13 -9 -18 -21 -9 -21 -10 -20 -23 4 -8 14 -11 34 -7 44 7 17
8 17 17 0 6 -9 14 -15 19 -12z m116 -38 c4 -4 17 -7 28 -8 19 0 19 -1 -3 -10
-19 -8 -27 -6 -33 6 -11 19 -28 20 -28 1 0 -8 -5 -18 -10 -21 -7 -4 -9 3 -6
19 4 21 1 26 -15 26 -10 0 -19 4 -19 9 0 9 73 -9 86 -22z m167 26 c-7 -2 -19
-2 -25 0 -7 3 -2 5 12 5 14 0 19 -2 13 -5z m145 0 c-10 -2 -28 -2 -40 0 -13 2
-5 4 17 4 22 1 32 -1 23 -4z m-388 -34 c0 -4 -7 -6 -15 -3 -8 4 -15 10 -15 15
0 4 7 6 15 3 8 -4 15 -10 15 -15z m-26 -20 c-4 -8 1 -9 17 -5 23 7 23 7 5 -8
-16 -13 -22 -13 -28 -3 -11 17 -10 27 3 27 5 0 7 -5 3 -11z m89 -9 c3 -11 1
-20 -4 -20 -5 0 -9 9 -9 20 0 11 2 20 4 20 2 0 6 -9 9 -20z m92 0 c3 -5 -1
-10 -9 -10 -9 0 -16 5 -16 10 0 6 4 10 9 10 6 0 13 -4 16 -10z m58 3 c-7 -2
-21 -2 -30 0 -10 3 -4 5 12 5 17 0 24 -2 18 -5z m174 -5 c-7 -4 -43 -7 -82 -7
-40 1 -60 4 -47 7 32 9 143 9 129 0z m53 2 c0 -5 -4 -10 -10 -10 -5 0 -10 5
-10 10 0 6 5 10 10 10 6 0 10 -4 10 -10z m-19 -40 c5 0 9 5 9 10 0 6 4 10 10
10 5 0 7 -7 4 -15 -7 -18 -44 -20 -44 -3 0 6 -3 8 -7 4 -5 -4 0 -13 10 -20 15
-12 13 -15 -25 -25 -51 -14 -95 -11 -110 7 -9 10 -6 11 16 2 15 -5 37 -10 49
-9 14 0 9 5 -16 12 -22 7 -35 15 -31 19 4 4 12 4 18 -1 6 -5 29 -12 51 -15
l40 -5 -37 11 c-43 13 -51 38 -12 38 14 0 23 -4 19 -9 -3 -5 -1 -12 5 -16 5
-3 10 0 10 9 0 19 24 27 28 9 2 -7 8 -13 13 -13z m-391 10 c0 -5 -7 -7 -15 -4
-8 4 -15 8 -15 10 0 2 7 4 15 4 8 0 15 -4 15 -10z m89 -14 c-12 -10 -59 -15
-59 -6 0 5 14 10 32 10 17 0 29 -2 27 -4z m-215 -162 c18 -17 21 -28 6 -19 -5
3 -10 4 -10 1 0 -7 58 -66 65 -66 13 0 3 24 -17 40 -13 10 8 3 46 -16 37 -19
78 -34 90 -35 21 0 21 -1 -2 -11 -29 -15 -24 -42 8 -45 l25 -3 -25 11 c-20 8
-22 12 -10 19 19 12 47 13 54 1 3 -4 -5 -7 -17 -6 -12 1 -14 0 -4 -2 9 -2 17
-9 17 -14 0 -5 10 -9 23 -8 18 0 19 2 5 7 -12 5 -14 11 -9 21 5 8 16 11 26 8
9 -4 13 -11 10 -17 -3 -6 4 -10 17 -10 14 0 18 3 11 8 -6 4 9 7 33 8 24 0 41
-3 38 -8 -3 -4 0 -8 5 -8 6 0 11 5 11 10 0 6 4 10 9 10 14 0 -13 -48 -35 -65
-22 -15 -54 -3 -54 20 0 8 -4 15 -10 15 -5 0 -10 -7 -10 -15 0 -8 -7 -15 -16
-15 -8 0 -13 3 -11 8 3 4 -17 8 -45 9 -53 1 -97 28 -78 47 18 18 11 28 -15 22
-18 -5 -25 -2 -25 8 0 8 -6 16 -13 19 -9 3 -12 -8 -11 -42 1 -25 -3 -49 -9
-53 -14 -8 -38 2 -31 13 3 6 1 16 -6 24 -7 9 -8 15 -1 20 11 6 -7 45 -21 45
-11 0 -39 -31 -34 -39 3 -4 -4 -7 -14 -7 -10 0 -17 4 -14 8 2 4 -4 11 -13 17
-10 5 -15 13 -10 17 4 4 16 -1 27 -11 11 -10 20 -14 20 -8 0 15 -32 48 -55 57
-19 8 -19 8 -1 15 13 5 27 -2 48 -21 17 -16 33 -26 36 -23 3 3 -3 12 -14 20
-15 12 -16 16 -5 24 8 5 9 11 3 15 -6 3 -12 0 -15 -6 -2 -7 -8 -10 -12 -6 -8
8 2 28 15 28 5 0 16 -7 24 -16z m113 -136 c-3 -8 -6 -5 -6 6 -1 11 2 17 5 13
3 -3 4 -12 1 -19z m-87 -10 c0 -13 -23 -5 -28 10 -2 7 2 10 12 6 9 -3 16 -11
16 -16z m444 -3 c-4 -8 -8 -15 -10 -15 -2 0 -4 7 -4 15 0 8 4 15 10 15 5 0 7
-7 4 -15z m-350 -17 c-5 -8 0 -9 14 -6 12 4 25 1 29 -4 3 -7 1 -8 -5 -4 -7 4
-12 3 -12 -3 0 -6 19 -9 48 -7 27 3 54 -1 63 -7 14 -10 10 -13 -23 -13 -26 -1
-35 2 -27 7 8 5 -6 6 -35 2 -33 -4 -47 -3 -43 4 4 6 0 13 -8 17 -17 6 -20 26
-4 26 5 0 7 -5 3 -12z m193 -34 c-3 -3 -12 -4 -19 -1 -8 3 -5 6 6 6 11 1 17
-2 13 -5z"/>
<path d="M460 1841 c0 -6 4 -13 10 -16 6 -3 7 1 4 9 -7 18 -14 21 -14 7z"/>
<path d="M570 1850 c0 -5 5 -10 10 -10 6 0 10 5 10 10 0 6 -4 10 -10 10 -5 0
-10 -4 -10 -10z"/>
<path d="M1160 1780 c0 -5 9 -10 19 -10 11 0 23 -4 26 -10 3 -5 11 -10 17 -10
6 0 3 9 -7 20 -19 21 -55 27 -55 10z"/>
<path d="M415 1780 c-3 -5 1 -10 9 -10 9 0 16 5 16 10 0 6 -4 10 -9 10 -6 0
-13 -4 -16 -10z"/>
<path d="M765 1760 c28 -12 37 -12 30 0 -3 6 -16 10 -28 9 -21 0 -21 -1 -2 -9z"/>
<path d="M560 1620 c0 -5 7 -10 15 -10 8 0 15 5 15 10 0 6 -7 10 -15 10 -8 0
-15 -4 -15 -10z"/>
<path d="M610 1600 c0 -5 7 -10 15 -10 8 0 15 5 15 10 0 6 -7 10 -15 10 -8 0
-15 -4 -15 -10z"/>
<path d="M1322 1410 c0 -14 2 -19 5 -12 2 6 2 18 0 25 -3 6 -5 1 -5 -13z"/>
<path d="M585 1470 c3 -5 14 -10 23 -10 15 0 15 2 2 10 -20 13 -33 13 -25 0z"/>
<path d="M575 1442 c11 -10 30 -17 44 -16 26 1 39 18 22 29 -7 4 -8 0 -4 -11
4 -12 3 -15 -6 -10 -6 4 -26 12 -43 17 -30 8 -30 8 -13 -9z"/>
<path d="M990 1369 c0 -7 -8 -18 -17 -26 -17 -13 -16 -13 2 -5 20 10 27 12 45
12 6 0 10 7 10 15 0 8 -9 15 -20 15 -11 0 -20 -5 -20 -11z"/>
<path d="M875 1340 c3 -5 14 -10 23 -10 15 0 15 2 2 10 -20 13 -33 13 -25 0z"/>
<path d="M380 1186 c0 -2 7 -6 15 -10 8 -3 15 -1 15 4 0 6 -7 10 -15 10 -8 0
-15 -2 -15 -4z"/>
<path d="M406 925 c-3 -8 -17 -15 -31 -15 -14 0 -25 -4 -25 -10 0 -5 11 -10
24 -10 14 0 28 5 31 10 3 6 15 10 27 10 17 0 18 2 8 15 -7 8 -16 15 -20 15 -4
0 -10 -7 -14 -15z"/>
<path d="M1018 863 c7 -3 16 -2 19 1 4 3 -2 6 -13 5 -11 0 -14 -3 -6 -6z"/>
<path d="M1010 846 c0 -2 7 -7 16 -10 8 -3 12 -2 9 4 -6 10 -25 14 -25 6z"/>
<path d="M430 748 c0 -9 5 -20 10 -23 13 -8 13 5 0 25 -8 13 -10 13 -10 -2z"/>
<path d="M460 330 c0 -5 5 -10 11 -10 5 0 7 5 4 10 -3 6 -8 10 -11 10 -2 0 -4
-4 -4 -10z"/>
<path d="M742 320 c14 -4 32 -11 40 -15 7 -3 4 1 -6 9 -11 9 -29 16 -40 15
-17 -1 -16 -2 6 -9z"/>
<path d="M730 300 c0 -5 10 -10 23 -10 18 0 19 2 7 10 -19 13 -30 13 -30 0z"/>
<path d="M1782 748 c-7 -7 -12 -37 -12 -67 0 -73 -16 -182 -32 -215 l-11 -26
-46 49 c-48 51 -92 71 -120 54 -29 -18 -25 -52 12 -92 23 -26 38 -56 46 -90 6
-28 20 -69 31 -91 11 -22 20 -44 20 -49 0 -6 -18 -40 -40 -76 -22 -36 -40 -69
-40 -73 0 -5 -11 -19 -25 -32 -14 -13 -25 -27 -25 -32 0 -4 89 -8 199 -8 l198
0 18 45 c13 36 14 49 5 60 -10 12 -6 22 20 51 17 20 40 55 52 78 16 33 37 52
101 92 84 52 102 78 77 110 -17 20 -54 18 -103 -7 l-42 -21 25 28 c14 16 27
31 30 34 58 57 68 100 28 121 -25 13 -46 6 -89 -33 -61 -56 -83 -73 -77 -63 3
6 22 45 43 88 40 84 41 121 4 132 -46 15 -64 -1 -112 -102 l-46 -98 1 107 c1
75 -2 111 -11 122 -16 19 -62 21 -79 4z m45 -60 c-3 -7 -5 -2 -5 12 0 14 2 19
5 13 2 -7 2 -19 0 -25z m193 -14 c0 -1 -3 -9 -6 -18 -8 -22 -25 -20 -18 2 5
14 4 15 -5 2 -6 -9 -6 -19 -1 -24 4 -4 6 -15 3 -23 -5 -12 -7 -12 -14 -1 -7
10 -9 9 -9 -4 0 -9 -4 -20 -10 -23 -8 -5 11 63 24 84 5 7 36 11 36 5z m-192
-69 c1 -37 -3 -65 -8 -65 -6 0 -10 -8 -10 -17 0 -13 3 -14 8 -6 5 8 8 -2 8
-24 l0 -37 -12 28 -11 28 -7 -32 c-3 -18 -8 -31 -11 -28 -3 2 0 20 5 39 6 19
13 61 16 94 9 105 19 114 22 20z m132 -50 c0 -8 -2 -15 -4 -15 -2 0 -6 7 -10
15 -3 8 -1 15 4 15 6 0 10 -7 10 -15z m150 -31 c0 -8 -4 -13 -9 -10 -5 3 -11
-3 -14 -14 -3 -13 -10 -18 -21 -14 -12 4 -15 2 -10 -9 3 -8 1 -18 -5 -22 -7
-4 -10 2 -7 17 2 14 10 22 20 22 9 -1 15 3 13 10 -2 6 3 16 12 23 21 16 21 16
21 -3z m-160 -1 c0 -5 -5 -15 -10 -23 -8 -13 -11 -13 -22 -1 -11 11 -11 13 1
6 11 -6 13 -4 8 8 -4 11 -1 17 8 17 8 0 15 -3 15 -7z m-308 -48 c2 3 5 -2 5
-10 0 -22 -24 -18 -30 6 -4 15 -2 18 7 10 7 -6 15 -9 18 -6z m278 -8 c0 -7 -4
-6 -11 3 -8 11 -9 7 -5 -17 6 -36 2 -40 -19 -19 -12 11 -11 17 1 35 15 21 34
20 34 -2z m-71 -28 c-16 -10 -23 -4 -14 10 3 6 11 8 17 5 6 -4 5 -9 -3 -15z
m-179 2 c0 -5 -7 -12 -16 -15 -14 -5 -15 -4 -4 9 14 17 20 19 20 6z m134 -17
c-13 -19 -14 -28 -5 -37 8 -8 11 -7 11 5 0 9 4 20 10 23 5 3 8 0 5 -7 -4 -10
8 -13 45 -14 27 -1 47 3 44 7 -3 5 0 9 5 9 19 0 12 -45 -10 -64 -18 -15 -23
-15 -30 -5 -5 8 -9 20 -9 27 0 7 -5 10 -10 7 -6 -4 -8 -12 -4 -18 3 -7 -1 -4
-9 6 -20 24 -30 21 -16 -5 10 -19 7 -18 -17 6 -16 15 -30 33 -30 40 -1 6 -2
16 -3 21 -1 6 -6 3 -11 -5 -7 -11 -10 -11 -10 -2 0 7 10 17 23 22 35 14 39 12
21 -16z m196 11 c-8 -10 -9 -15 -2 -15 6 0 16 8 21 18 6 9 11 12 11 6 0 -16
-21 -31 -43 -31 -16 0 -16 2 0 19 19 22 31 24 13 3z m-130 -15 c0 -5 -4 -10
-10 -10 -5 0 -10 5 -10 10 0 6 5 10 10 10 6 0 10 -4 10 -10z m-186 -22 c5 4 7
-4 5 -18 -2 -14 0 -31 4 -37 11 -18 3 -16 -19 5 -23 19 -32 71 -10 53 7 -6 16
-7 20 -3z m276 2 c0 -5 -4 -10 -10 -10 -5 0 -10 5 -10 10 0 6 5 10 10 10 6 0
10 -4 10 -10z m-225 -18 c-3 -3 -11 0 -18 7 -9 10 -8 11 6 5 10 -3 15 -9 12
-12z m425 13 c0 -2 -6 -8 -13 -14 -10 -8 -14 -7 -14 2 0 8 6 14 14 14 7 0 13
-1 13 -2z m-434 -42 c-7 -7 -26 7 -26 19 0 6 6 6 15 -2 9 -7 13 -15 11 -17z
m374 23 c0 -2 -7 -7 -16 -10 -8 -3 -12 -2 -9 4 6 10 25 14 25 6z m-147 -23
c-6 -15 -4 -16 9 -5 20 16 42 -7 31 -33 -5 -14 -3 -17 9 -12 12 4 14 1 11 -13
-5 -18 -6 -19 -29 -2 -27 20 -31 32 -8 32 8 0 12 5 8 11 -4 8 -9 8 -17 0 -18
-18 -27 -13 -27 14 0 14 4 25 10 25 5 0 6 -8 3 -17z m-169 -32 c-2 -2 1 -10 8
-18 6 -7 8 -16 5 -19 -3 -3 -13 8 -21 25 -20 37 -20 46 -2 29 8 -7 12 -15 10
-17z m286 25 c0 -2 -7 -9 -15 -16 -13 -11 -14 -10 -9 4 5 14 24 23 24 12z
m-338 -34 c-7 -2 -12 -8 -12 -13 0 -6 5 -7 10 -4 6 3 10 -2 10 -12 1 -17 2
-17 15 1 13 17 15 18 15 3 0 -9 4 -17 9 -17 4 0 6 -11 3 -25 -5 -29 -14 -31
-35 -10 -12 11 -17 12 -21 2 -3 -6 -4 0 -1 16 5 27 -8 38 -19 15 -3 -7 -3 -2
0 12 4 14 7 30 8 35 2 16 21 25 25 13 2 -7 -1 -14 -7 -16z m-45 -14 c-3 -8 -6
-5 -6 6 -1 11 2 17 5 13 3 -3 4 -12 1 -19z m173 -25 c-1 -28 -3 -34 -10 -22
-8 14 -3 59 6 59 2 0 4 -17 4 -37z m40 -16 c0 -16 -5 -27 -11 -25 -6 2 -10 7
-10 11 1 4 1 22 1 40 0 24 3 28 10 17 5 -8 10 -28 10 -43z m71 27 c11 -14 10
-16 -6 -14 -37 4 -46 0 -41 -17 6 -18 -6 -45 -18 -44 -22 3 -25 0 -14 -13 11
-11 15 -11 25 3 7 9 12 11 13 4 0 -6 -5 -15 -10 -18 -6 -4 -7 -11 -4 -17 4 -6
-2 -6 -15 1 -11 7 -21 17 -21 22 0 6 -7 8 -16 5 -10 -4 -13 -2 -8 6 5 8 2 9
-10 5 -11 -4 -15 -3 -10 4 4 7 0 9 -13 5 -14 -4 -19 -1 -20 14 -1 11 3 20 8
20 6 0 7 -4 4 -10 -6 -10 -3 -11 50 -15 43 -3 54 3 48 26 -4 12 2 25 13 34 24
18 29 18 45 -1z m-16 -34 c3 -5 1 -10 -4 -10 -6 0 -11 5 -11 10 0 6 2 10 4 10
3 0 8 -4 11 -10z m45 6 c0 -2 -7 -9 -15 -16 -13 -11 -14 -10 -9 4 5 14 24 23
24 12z m-50 -36 c0 -5 -4 -10 -10 -10 -5 0 -10 5 -10 10 0 6 5 10 10 10 6 0
10 -4 10 -10z"/>
<path d="M1665 370 c3 -5 8 -10 11 -10 2 0 4 5 4 10 0 6 -5 10 -11 10 -5 0 -7
-4 -4 -10z"/>
<path d="M1761 254 c0 -11 3 -14 6 -6 3 7 2 16 -1 19 -3 4 -6 -2 -5 -13z"/>
</g>
</svg>
